<svg xmlns:xlink="http://www.w3.org/1999/xlink" xmlns="http://www.w3.org/2000/svg" viewBox="0 0 30 50" alt="B-Corp Logo" class="Footer-module_bCorpLogo__6YCKw Footer-module_svgLink__BdilV" width="32"  height="53" ><path d="M2.574 46.29a.8.8 0 0 0-.184-.207.9.9 0 0 0-.25-.14.9.9 0 0 0-.292-.05.96.96 0 0 0-.474.108.9.9 0 0 0-.316.29 1.3 1.3 0 0 0-.176.413 2 2 0 0 0-.055.48 2 2 0 0 0 .055.46 1.2 1.2 0 0 0 .176.403.9.9 0 0 0 .316.287.96.96 0 0 0 .474.108.77.77 0 0 0 .592-.232 1.07 1.07 0 0 0 .26-.61h.8a1.9 1.9 0 0 1-.162.636 1.5 1.5 0 0 1-.348.484 1.5 1.5 0 0 1-.505.306 1.9 1.9 0 0 1-.637.105 1.9 1.9 0 0 1-.777-.15 1.7 1.7 0 0 1-.581-.413 1.8 1.8 0 0 1-.364-.619A2.3 2.3 0 0 1 0 47.183a2.3 2.3 0 0 1 .126-.781 1.9 1.9 0 0 1 .364-.63 1.7 1.7 0 0 1 .581-.42 1.9 1.9 0 0 1 .777-.154 1.9 1.9 0 0 1 .587.09 1.6 1.6 0 0 1 .495.26 1.4 1.4 0 0 1 .36.424 1.5 1.5 0 0 1 .18.58h-.8a.7.7 0 0 0-.096-.261M4.654 48.007a.9.9 0 0 0 .108.28.6.6 0 0 0 .203.197.6.6 0 0 0 .315.073.64.64 0 0 0 .32-.073.6.6 0 0 0 .204-.198.9.9 0 0 0 .108-.279 1.6 1.6 0 0 0 .032-.318 1.6 1.6 0 0 0-.032-.321.8.8 0 0 0-.108-.28.6.6 0 0 0-.205-.197.6.6 0 0 0-.319-.076.57.57 0 0 0-.518.274.8.8 0 0 0-.108.279 1.6 1.6 0 0 0-.032.32 1.6 1.6 0 0 0 .032.32m-.68-.912a1.24 1.24 0 0 1 .727-.742 1.6 1.6 0 0 1 .58-.102 1.6 1.6 0 0 1 .581.102 1.24 1.24 0 0 1 .729.742 1.7 1.7 0 0 1 .1.593 1.7 1.7 0 0 1-.1.59 1.3 1.3 0 0 1-.284.45 1.25 1.25 0 0 1-.445.286 1.6 1.6 0 0 1-.582.1 1.6 1.6 0 0 1-.579-.1 1.25 1.25 0 0 1-.442-.286 1.3 1.3 0 0 1-.284-.45 1.7 1.7 0 0 1-.1-.59 1.7 1.7 0 0 1 .1-.593M7.86 46.325v.505h.01a1 1 0 0 1 .143-.234 1 1 0 0 1 .205-.184 1 1 0 0 1 .247-.118.9.9 0 0 1 .274-.043.6.6 0 0 1 .163.027v.695a2 2 0 0 0-.126-.019 1 1 0 0 0-.142-.008.8.8 0 0 0-.347.069.6.6 0 0 0-.23.187.75.75 0 0 0-.123.276 1.5 1.5 0 0 0-.037.342v1.227h-.748v-2.722ZM10.853 48.484a.6.6 0 0 0 .2-.192.8.8 0 0 0 .108-.277 1.6 1.6 0 0 0 .031-.321 1.5 1.5 0 0 0-.034-.321.9.9 0 0 0-.113-.282.6.6 0 0 0-.203-.2.57.57 0 0 0-.302-.076.6.6 0 0 0-.308.076.6.6 0 0 0-.2.197.8.8 0 0 0-.108.28 1.7 1.7 0 0 0-.032.326 1.5 1.5 0 0 0 .034.321.8.8 0 0 0 .111.277.64.64 0 0 0 .816.192m-.971-2.159v.348h.01a.8.8 0 0 1 .348-.321 1.1 1.1 0 0 1 .463-.1 1.2 1.2 0 0 1 .553.12 1.14 1.14 0 0 1 .384.322 1.4 1.4 0 0 1 .227.466 2 2 0 0 1 .073.555 1.9 1.9 0 0 1-.073.527 1.3 1.3 0 0 1-.224.447 1.1 1.1 0 0 1-.374.31 1.1 1.1 0 0 1-.524.116 1.06 1.06 0 0 1-.466-.102.9.9 0 0 1-.35-.303h-.01V50H9.17v-3.675ZM13.056 48.007a.9.9 0 0 0 .108.28.6.6 0 0 0 .203.197.6.6 0 0 0 .316.073.64.64 0 0 0 .318-.073.6.6 0 0 0 .205-.198.9.9 0 0 0 .109-.279 1.6 1.6 0 0 0 .031-.318 1.6 1.6 0 0 0-.031-.321.8.8 0 0 0-.109-.28.6.6 0 0 0-.205-.197.6.6 0 0 0-.318-.076.57.57 0 0 0-.519.274.8.8 0 0 0-.108.279 1.6 1.6 0 0 0-.032.32 1.6 1.6 0 0 0 .032.32m-.679-.912a1.24 1.24 0 0 1 .727-.742 1.6 1.6 0 0 1 .579-.102 1.6 1.6 0 0 1 .581.102 1.24 1.24 0 0 1 .73.742 1.7 1.7 0 0 1 .1.593 1.7 1.7 0 0 1-.1.59 1.3 1.3 0 0 1-.285.45 1.25 1.25 0 0 1-.445.286 1.6 1.6 0 0 1-.581.1 1.6 1.6 0 0 1-.58-.1 1.25 1.25 0 0 1-.442-.286 1.3 1.3 0 0 1-.284-.45 1.7 1.7 0 0 1-.1-.59 1.7 1.7 0 0 1 .1-.593M16.262 46.325v.505h.011a1 1 0 0 1 .142-.234 1 1 0 0 1 .205-.184 1 1 0 0 1 .248-.118.9.9 0 0 1 .274-.043.6.6 0 0 1 .163.027v.695a2 2 0 0 0-.127-.019 1 1 0 0 0-.142-.008.8.8 0 0 0-.347.069.6.6 0 0 0-.23.187.75.75 0 0 0-.123.276 1.5 1.5 0 0 0-.037.342v1.227h-.747v-2.722ZM19.268 47.715a.3.3 0 0 1-.118.066 1 1 0 0 1-.153.04q-.081.015-.17.026t-.18.026a1.4 1.4 0 0 0-.166.042.5.5 0 0 0-.142.07.34.34 0 0 0-.097.114.36.36 0 0 0-.037.174.35.35 0 0 0 .037.169.3.3 0 0 0 .1.108.4.4 0 0 0 .147.055 1 1 0 0 0 .174.015.66.66 0 0 0 .342-.073.5.5 0 0 0 .18-.177.6.6 0 0 0 .07-.208 1.4 1.4 0 0 0 .013-.168Zm-1.726-.553a.86.86 0 0 1 .131-.437.9.9 0 0 1 .295-.279 1.3 1.3 0 0 1 .403-.15 2.3 2.3 0 0 1 .45-.045 3 3 0 0 1 .416.03 1.3 1.3 0 0 1 .384.113.76.76 0 0 1 .285.234.66.66 0 0 1 .11.397v1.417a3 3 0 0 0 .021.352.6.6 0 0 0 .074.253h-.758a1 1 0 0 1-.035-.13 1 1 0 0 1-.018-.133 1 1 0 0 1-.421.258 1.7 1.7 0 0 1-.495.073 1.3 1.3 0 0 1-.363-.047.8.8 0 0 1-.295-.147.7.7 0 0 1-.198-.253.86.86 0 0 1-.07-.364.8.8 0 0 1 .08-.381.7.7 0 0 1 .212-.24 1 1 0 0 1 .295-.134 3 3 0 0 1 .334-.07q.168-.028.331-.043a2 2 0 0 0 .29-.047.5.5 0 0 0 .2-.093.2.2 0 0 0 .068-.176.4.4 0 0 0-.039-.192.3.3 0 0 0-.105-.11.4.4 0 0 0-.153-.053 1 1 0 0 0-.187-.014.57.57 0 0 0-.347.095.42.42 0 0 0-.148.316ZM22.064 46.325v.5h-.547v1.348a.253.253 0 0 0 .316.316q.062 0 .12-.005a1 1 0 0 0 .111-.016v.579a2 2 0 0 1-.21.021q-.116.005-.227.005a2 2 0 0 1-.33-.023.8.8 0 0 1-.273-.092.5.5 0 0 1-.187-.195.7.7 0 0 1-.068-.332v-1.606h-.453v-.5h.453v-.816h.748v.816ZM23.164 49.047h-.747v-2.722h.747Zm-.747-3.76h.747v.617h-.747ZM24.423 48.007a.9.9 0 0 0 .107.28.6.6 0 0 0 .203.197.6.6 0 0 0 .316.073.64.64 0 0 0 .319-.073.6.6 0 0 0 .205-.198.9.9 0 0 0 .108-.279 1.6 1.6 0 0 0 .031-.318 1.7 1.7 0 0 0-.031-.321.8.8 0 0 0-.108-.28.6.6 0 0 0-.205-.197.6.6 0 0 0-.32-.076.57.57 0 0 0-.518.274.8.8 0 0 0-.107.279 1.6 1.6 0 0 0-.032.32 1.6 1.6 0 0 0 .032.32m-.68-.912a1.24 1.24 0 0 1 .727-.742 1.6 1.6 0 0 1 .579-.102 1.6 1.6 0 0 1 .582.102 1.24 1.24 0 0 1 .729.742 1.7 1.7 0 0 1 .1.593 1.7 1.7 0 0 1-.1.59 1.3 1.3 0 0 1-.284.45 1.25 1.25 0 0 1-.445.286 1.6 1.6 0 0 1-.582.1 1.6 1.6 0 0 1-.58-.1 1.25 1.25 0 0 1-.442-.286 1.3 1.3 0 0 1-.284-.45 1.7 1.7 0 0 1-.1-.59 1.7 1.7 0 0 1 .1-.593M27.629 46.325v.38h.015a.86.86 0 0 1 .369-.345 1.1 1.1 0 0 1 .463-.109 1.3 1.3 0 0 1 .492.082.73.73 0 0 1 .303.227.9.9 0 0 1 .155.352 2.2 2.2 0 0 1 .045.461v1.674h-.747V47.51a.96.96 0 0 0-.106-.503.41.41 0 0 0-.374-.166.52.52 0 0 0-.442.182 1 1 0 0 0-.137.597v1.427h-.747v-2.722ZM3.588 1.502a1.2 1.2 0 0 0-.254-.286 1.2 1.2 0 0 0-.745-.26 1.3 1.3 0 0 0-.652.148 1.2 1.2 0 0 0-.434.398 1.8 1.8 0 0 0-.243.568 2.8 2.8 0 0 0-.076.66 2.6 2.6 0 0 0 .076.633 1.7 1.7 0 0 0 .243.553 1.24 1.24 0 0 0 .434.395 1.3 1.3 0 0 0 .652.148 1.05 1.05 0 0 0 .814-.318 1.47 1.47 0 0 0 .358-.84h1.1a2.6 2.6 0 0 1-.224.876 2.1 2.1 0 0 1-.477.666 2 2 0 0 1-.695.42 2.6 2.6 0 0 1-.876.145A2.65 2.65 0 0 1 1.52 5.2a2.3 2.3 0 0 1-.8-.568 2.5 2.5 0 0 1-.5-.85 3.1 3.1 0 0 1-.173-1.054A3.2 3.2 0 0 1 .22 1.654a2.6 2.6 0 0 1 .5-.865 2.3 2.3 0 0 1 .8-.579A2.6 2.6 0 0 1 2.589 0a2.6 2.6 0 0 1 .807.123 2.2 2.2 0 0 1 .68.359 1.9 1.9 0 0 1 .496.582 2.1 2.1 0 0 1 .246.796h-1.1a.9.9 0 0 0-.13-.358M7.79 2.425a.72.72 0 0 0-.561-.203.9.9 0 0 0-.41.084.8.8 0 0 0-.26.206.8.8 0 0 0-.137.26 1.2 1.2 0 0 0-.048.247h1.673a1.2 1.2 0 0 0-.257-.594m-1.162 1.97a.92.92 0 0 0 .666.224.9.9 0 0 0 .536-.156.65.65 0 0 0 .275-.33h.905a1.72 1.72 0 0 1-.666.963 1.96 1.96 0 0 1-1.086.29 2.1 2.1 0 0 1-.797-.141 1.7 1.7 0 0 1-.6-.402 1.8 1.8 0 0 1-.38-.622 2.3 2.3 0 0 1-.135-.797 2.2 2.2 0 0 1 .138-.782A1.8 1.8 0 0 1 6.48 1.6a1.9 1.9 0 0 1 .778-.152 1.8 1.8 0 0 1 .832.185 1.66 1.66 0 0 1 .583.495 2 2 0 0 1 .33.71 2.7 2.7 0 0 1 .072.832h-2.7a1.04 1.04 0 0 0 .253.724M10.66 1.55v.694h.014a1.3 1.3 0 0 1 .196-.322 1.3 1.3 0 0 1 .282-.253 1.4 1.4 0 0 1 .34-.163 1.2 1.2 0 0 1 .377-.058.8.8 0 0 1 .224.036v.956a2 2 0 0 0-.174-.026 2 2 0 0 0-.195-.01 1.1 1.1 0 0 0-.478.093.83.83 0 0 0-.315.257 1 1 0 0 0-.17.38 2 2 0 0 0-.05.471v1.687H9.681V1.549ZM14.989 1.55v.687h-.753V4.09a.5.5 0 0 0 .087.348.5.5 0 0 0 .347.087q.087 0 .167-.008a1 1 0 0 0 .152-.021v.796a2 2 0 0 1-.29.029q-.159.007-.311.007a3 3 0 0 1-.452-.033 1.1 1.1 0 0 1-.377-.126.67.67 0 0 1-.257-.268.96.96 0 0 1-.094-.456V2.237h-.623v-.688h.623V.427h1.028V1.55ZM16.538 5.292H15.51V1.549h1.028ZM15.51.123h1.028V.97H15.51ZM16.958 2.237v-.688h.615v-.29a1.12 1.12 0 0 1 .311-.817 1.26 1.26 0 0 1 .941-.319q.138 0 .276.011l.268.018v.767a3 3 0 0 0-.377-.021.4.4 0 0 0-.3.097.48.48 0 0 0-.091.33v.224h.71v.688h-.71v3.055h-1.028V2.237ZM20.816 5.292h-1.028V1.549h1.028ZM19.788.123h1.028V.97h-1.028ZM23.889 2.425a.72.72 0 0 0-.561-.203.9.9 0 0 0-.41.084.8.8 0 0 0-.26.206.8.8 0 0 0-.137.26 1.2 1.2 0 0 0-.047.247h1.672a1.2 1.2 0 0 0-.257-.594m-1.162 1.97a1.05 1.05 0 0 0 1.201.068.64.64 0 0 0 .275-.33h.905a1.7 1.7 0 0 1-.666.963 1.96 1.96 0 0 1-1.085.29 2.1 2.1 0 0 1-.796-.141 1.7 1.7 0 0 1-.601-.402 1.8 1.8 0 0 1-.38-.622 2.3 2.3 0 0 1-.134-.797 2.2 2.2 0 0 1 .137-.782A1.8 1.8 0 0 1 22.58 1.6a1.9 1.9 0 0 1 .778-.152 1.8 1.8 0 0 1 .832.185 1.7 1.7 0 0 1 .583.495 2 2 0 0 1 .33.71 2.6 2.6 0 0 1 .071.832h-2.7a1.04 1.04 0 0 0 .254.724M28.395 2.964a1.1 1.1 0 0 0-.148-.376.84.84 0 0 0-.272-.264.8.8 0 0 0-.42-.101.84.84 0 0 0-.427.1.8.8 0 0 0-.279.269 1.2 1.2 0 0 0-.152.38 2 2 0 0 0-.046.445 2 2 0 0 0 .05.434 1.2 1.2 0 0 0 .163.387.9.9 0 0 0 .282.276.76.76 0 0 0 .41.104.8.8 0 0 0 .423-.101.76.76 0 0 0 .271-.271 1.2 1.2 0 0 0 .145-.388 2.3 2.3 0 0 0 .043-.449 2.2 2.2 0 0 0-.043-.445m.043 1.85a1.06 1.06 0 0 1-.474.438 1.6 1.6 0 0 1-.662.134 1.6 1.6 0 0 1-.738-.163 1.5 1.5 0 0 1-.525-.441 2 2 0 0 1-.312-.641 2.7 2.7 0 0 1-.104-.753 2.5 2.5 0 0 1 .104-.728 1.9 1.9 0 0 1 .312-.618 1.51 1.51 0 0 1 1.241-.594 1.5 1.5 0 0 1 .634.14 1.1 1.1 0 0 1 .474.418h.014V.123h1.028v5.169h-.977v-.478ZM.225 40.982h29.22v1.91H.225zM16.725 29.777a3.26 3.26 0 0 0 2.35-.811 2.96 2.96 0 0 0 .847-2.243 2.8 2.8 0 0 0-.31-1.383 2.4 2.4 0 0 0-.823-.871 3.5 3.5 0 0 0-1.181-.453 7 7 0 0 0-1.384-.132h-5.177v5.893Zm-1.145-7.8a4.47 4.47 0 0 0 2.78-.681 2.46 2.46 0 0 0 .846-2.04 3 3 0 0 0-.286-1.43 2.03 2.03 0 0 0-.787-.812 3.1 3.1 0 0 0-1.157-.37 11 11 0 0 0-1.396-.083h-4.533v5.415Zm-.62-7.325q.548 0 1.18.012t1.253.072a10 10 0 0 1 1.157.179 2.9 2.9 0 0 1 .918.357 4.45 4.45 0 0 1 1.42 1.384 3.85 3.85 0 0 1 .585 2.171 4.16 4.16 0 0 1-.656 2.35 3.87 3.87 0 0 1-1.873 1.467v.048a3.92 3.92 0 0 1 2.41 1.431 4.3 4.3 0 0 1 .834 2.672 5.1 5.1 0 0 1-.334 1.813 4.55 4.55 0 0 1-.99 1.563 5 5 0 0 1-1.622 1.097 5.6 5.6 0 0 1-2.23.417h-8.23V14.652Z" fill="#AEB6C2"></path><path d="M14.88 8.38a14.73 14.73 0 1 0 14.73 14.729 14.73 14.73 0 0 0-14.73-14.73m12.672 14.737a12.671 12.671 0 1 1-12.673-12.67 12.67 12.67 0 0 1 12.673 12.67M28.331 37.542a.4.4 0 0 0 .176-.03q.067-.028.067-.142a.13.13 0 0 0-.023-.08.2.2 0 0 0-.061-.046.3.3 0 0 0-.083-.021 1 1 0 0 0-.087-.007h-.208v.326Zm.004-.518a.65.65 0 0 1 .36.083.31.31 0 0 1 .126.284.4.4 0 0 1-.026.147.3.3 0 0 1-.07.1.3.3 0 0 1-.103.058.5.5 0 0 1-.127.027l.33.542h-.256l-.303-.53h-.154v.53h-.245v-1.24Zm-.797.971a.9.9 0 0 0 .178.277.8.8 0 0 0 .265.182.8.8 0 0 0 .327.066.8.8 0 0 0 .324-.066.8.8 0 0 0 .265-.182.9.9 0 0 0 .18-.277.9.9 0 0 0 .066-.35.9.9 0 0 0-.067-.347.9.9 0 0 0-.179-.274.82.82 0 0 0-.59-.246.8.8 0 0 0-.326.066.8.8 0 0 0-.265.18.9.9 0 0 0-.178.274.9.9 0 0 0-.065.348.9.9 0 0 0 .065.35m-.274-.806a1.1 1.1 0 0 1 .25-.348 1.1 1.1 0 0 1 .363-.222 1.22 1.22 0 0 1 .862 0 1.1 1.1 0 0 1 .363.222 1.1 1.1 0 0 1 .25.348 1.094 1.094 0 0 1-.613 1.487 1.25 1.25 0 0 1-.862 0 1.075 1.075 0 0 1-.706-1.031 1.1 1.1 0 0 1 .093-.456" fill="#AEB6C2"></path></svg>