<svg xmlns:xlink="http://www.w3.org/1999/xlink" xmlns="http://www.w3.org/2000/svg" viewBox="0 0 310 200" alt="Lulu Jr. Logo" class="Footer-module_jrLogo__bxiBz Footer-module_svgLink__BdilV" width="310"  height="200" ><path d="M250.01 143.522c-31.41 31.536-102.034 57.952-160.29 45.135-20.193-4.458-39.986-13.265-55.213-27.594-20.488-18.979-32.124-49.079-21.22-75.984 6.827-17.138 21.994-29.808 38.9-35.814-11.18 9.412-21.05 21.004-25.2 34.754-8.355 26.59 7.908 54.89 29.911 69.206 55.824 36.248 144.788 14.608 193.112-9.703" fill="#AEB6C2"></path><path d="M116.416 127.53a1.9 1.9 0 0 1-.721-1.462c0-1.014.797-1.833 1.816-1.833.475 0 .772.125 1.145.399.773.568 1.447.864 2.318.864 1.492 0 2.39-.864 2.39-2.87v-9.416c0-1.064.846-1.907 1.916-1.907s1.918.843 1.918 1.907v9.587c0 2.058-.597 3.592-1.645 4.632-1.07 1.066-2.638 1.61-4.53 1.61-1.992 0-3.512-.669-4.607-1.51m18.394-6.168c0 5.103 2.863 7.703 7.544 7.703S150 126.49 150 121.238v-8.025c0-1.066-.847-1.907-1.917-1.907s-1.918.84-1.918 1.907v8.176c0 2.748-1.42 4.159-3.76 4.159-2.341 0-3.761-1.46-3.761-4.284v-8.05c0-1.067-.846-1.908-1.916-1.908s-1.917.84-1.917 1.907zm23.076 5.697c0 1.04.847 1.884 1.893 1.884a1.89 1.89 0 0 0 1.894-1.884v-9.288l7.667 10.006c.523.67 1.072 1.115 1.992 1.115h.125c1.07 0 1.918-.841 1.918-1.907v-13.797c0-1.042-.848-1.882-1.893-1.882s-1.893.84-1.893 1.882v8.942l-7.394-9.66c-.522-.67-1.071-1.116-1.993-1.116h-.398c-1.07 0-1.918.841-1.918 1.908zm23.826-.025c0 1.067.848 1.908 1.917 1.908 1.07 0 1.916-.841 1.916-1.908v-13.822a1.895 1.895 0 0 0-1.916-1.907c-1.07 0-1.917.84-1.917 1.907zm25.414-6.861c0 2.973-2.14 5.4-5.228 5.4s-5.28-2.477-5.28-5.448v-.052c0-2.973 2.142-5.4 5.23-5.4s5.278 2.478 5.278 5.452zm-14.516 0c0 4.93 3.86 8.917 9.237 8.917s9.288-4.036 9.288-8.965v-.052c0-4.929-3.858-8.916-9.237-8.916s-9.288 4.036-9.288 8.968zm27.76-.296v-4.98h3.808c1.869 0 3.013.841 3.013 2.477v.049c0 1.462-1.07 2.454-2.937 2.454zm-3.836 7.158c0 1.064.847 1.908 1.918 1.908a1.897 1.897 0 0 0 1.917-1.908v-3.79h3.063l3.735 4.706c.447.57 1.022.992 1.89.992.923 0 1.819-.695 1.819-1.76 0-.595-.248-.99-.62-1.462l-2.664-3.218c2.114-.87 3.483-2.554 3.483-5.277v-.051c0-1.634-.523-2.996-1.493-3.963-1.145-1.14-2.863-1.759-5.08-1.759h-6.05c-1.07 0-1.918.842-1.918 1.908zM105.966 128.173c-17.972-.141-46.716-.823-52.462-.963a.98.98 0 0 1-.962-1.04c.405-7.357 2.885-53.684 3.966-105.746a1 1 0 0 1 .79-.964c3.822-.784 11.898-.633 15.741.251a.985.985 0 0 1 .766.993c-.176 6.68-1.453 54.7-2.804 88.95 11.274.603 30.96.479 35.368.445.51-.004.94.379.993.886.708 6.91-.085 13.927-.412 16.328a.985.985 0 0 1-.984.86" fill="#AEB6C2"></path><path d="M125.629 98.499c-.695-4.91-1.099-8.084-1.586-11.136-4.918 7.764-13.069 10.998-19.798 10.998-12.29 0-18.372-7.892-18.372-23.936 0-7.582 1.48-21.332 2.515-34.143.042-.52.485-.922 1.007-.917 5.727.054 10.437.604 14.04 1.473.473.114.787.563.755 1.048-.88 13.322-1.627 23.961-1.627 28.27 0 3.788.071 6.38 1.061 8.688 1.155 2.692 5.213 3.872 8.337 2.693 5.888-2.222 8.803-6.635 9.883-11.94.244-1.199.296-2.425.236-3.647-.175-3.578-.524-12.379-.132-19.052a.98.98 0 0 1 .88-.92c3.428-.35 10.724-.21 14.26.657a.98.98 0 0 1 .742 1.025c-.109 1.711-.202 4.351-.202 5.676 0 13.243.159 26.37 3.248 42.447.088.46-.152.921-.58 1.11-2.938 1.302-5.696 2.096-13.62 2.474a1.015 1.015 0 0 1-1.047-.868ZM223.148 98.499c-.695-4.91-1.1-8.084-1.586-11.136-4.918 7.764-13.07 10.998-19.798 10.998-12.29 0-18.372-7.892-18.372-23.936 0-7.582 1.48-21.332 2.514-34.143.043-.52.485-.922 1.008-.917 5.727.054 10.437.604 14.04 1.473.473.114.786.563.754 1.048-.88 13.322-1.626 23.961-1.626 28.27 0 3.788.07 6.38 1.061 8.688 1.155 2.692 5.213 3.872 8.337 2.693 5.888-2.222 8.803-6.635 9.883-11.94.244-1.199.295-2.425.236-3.647-.175-3.578-.524-12.379-.132-19.052a.98.98 0 0 1 .879-.92c3.429-.35 10.725-.21 14.262.657a.98.98 0 0 1 .74 1.025c-.108 1.711-.201 4.351-.201 5.676 0 13.243.158 26.37 3.247 42.447.089.46-.151.921-.579 1.11-2.939 1.302-5.696 2.096-13.62 2.474a1.015 1.015 0 0 1-1.047-.868ZM157.923 99.368c-1.217 0-2.433-.08-3.462-.238a.994.994 0 0 1-.852-.96c-.046-1.807.063-5.454.173-9.93.128-6.211 0-27.948-.518-50.461-.431-15.76-1.453-25.228-1.78-27.935a.98.98 0 0 1 .713-1.073c3.974-1.076 12.913-1.035 16.238.551.376.18.585.579.541.993-.229 2.19-.898 10.253-.574 27.335.259 17.725.776 36.745 1.423 50.849.196 3.126.613 6.917.806 8.585a1 1 0 0 1-.778 1.09c-2.57.588-7.703 1.194-11.93 1.194M240.33 112.39l7.76 6.373a2 2 0 0 0 1.969.328l35.631-13.319-30.153 17.879a2 2 0 0 0-.97 1.52l-1.434 14.27c-.092.913.993 1.457 1.67.837l4.943-4.527a2 2 0 0 0 .627-1.77l-.875-5.85 16.158 13.27a1 1 0 0 0 1.512-.293l23.594-43.166c.416-.76-.268-1.654-1.11-1.452l-58.922 14.155a1 1 0 0 0-.4 1.745Z" fill="#AEB6C2"></path></svg>