<svg xmlns:xlink="http://www.w3.org/1999/xlink" xmlns="http://www.w3.org/2000/svg" viewBox="0 0 500 175" alt="Lulu Logo" class="Footer-module_luluLogo__9OYyb Footer-module_svgLink__BdilV" width="500"  height="175" ><path d="m138.462 147.212 15.084-100.276a4.23 4.23 0 0 1 3.007-3.436l30.147-8.74a2.822 2.822 0 0 1 3.576 3.129L175.19 138.467c-.583 4.859 1.36 6.801 6.024 6.801a27.5 27.5 0 0 0 4.566-.416 3.03 3.03 0 0 1 3.52 3.424l-3.112 20.653a5.01 5.01 0 0 1-3.84 4.138A65 65 0 0 1 166.638 175c-20.987 0-30.897-9.716-28.177-27.788M351.138 175a65 65 0 0 0 15.707-1.933 5.01 5.01 0 0 0 3.841-4.138l3.113-20.653a3.03 3.03 0 0 0-3.52-3.424 27.5 27.5 0 0 1-4.567.416c-4.663 0-6.607-1.942-6.024-6.801l15.087-100.578a2.822 2.822 0 0 0-3.576-3.13l-30.147 8.74a4.23 4.23 0 0 0-3.007 3.437l-15.084 100.276C320.24 165.284 330.15 175 351.138 175m-39.431-30.177a23 23 0 0 1-4.362.445c-4.858 0-6.801-2.137-6.023-6.801l8.815-59.685a3.028 3.028 0 0 0-2.996-3.47H277.89a3.03 3.03 0 0 0-2.994 2.58l-7.386 49.304c-1.555 11.077-9.133 17.684-19.82 17.684-10.494 0-15.353-6.996-13.603-18.267l7.065-47.83a3.028 3.028 0 0 0-2.995-3.471h-29.245a3.03 3.03 0 0 0-2.995 2.585l-8.168 55.323c-3.692 24.874 10.299 41.78 35.56 41.78 13.408 0 25.651-4.859 33.813-12.048C270.618 170.53 279.169 175 292.77 175a69 69 0 0 0 15.948-1.994 4.6 4.6 0 0 0 3.542-3.828l3.014-20.953a3.034 3.034 0 0 0-3.568-3.402m184.693 0a23 23 0 0 1-4.361.445c-4.858 0-6.802-2.137-6.024-6.801l8.815-59.685a3.028 3.028 0 0 0-2.995-3.47h-29.252a3.03 3.03 0 0 0-2.994 2.58l-7.387 49.304c-1.554 11.077-9.132 17.684-19.82 17.684-10.493 0-15.352-6.996-13.603-18.267l7.066-47.83a3.028 3.028 0 0 0-2.995-3.47h-29.246a3.03 3.03 0 0 0-2.995 2.585l-8.168 55.322c-3.692 24.874 10.3 41.78 35.56 41.78 13.409 0 25.652-4.859 33.814-12.048 3.497 7.578 12.047 12.048 25.65 12.048a71.2 71.2 0 0 0 17.004-2.235 3.04 3.04 0 0 0 2.333-2.523l3.166-22.017a3.034 3.034 0 0 0-3.568-3.402m-439.316-.537a122 122 0 0 0-30.764-10.493 10.677 10.677 0 0 1-8.626-12.125l13.124-87.2a128 128 0 0 0-13.202-.081 1.64 1.64 0 0 0-1.53 1.4L.018 142.538a1.64 1.64 0 0 0 1.662 1.89c9.94-.245 55.318-.296 79.312 17.87-5.96-6.935-13.942-12.966-23.91-18.013m47.898 25.661s7.028-46.19 15.426-102.463C127.937 17.043 81.208 2.519 71.441.05a1.643 1.643 0 0 0-2.028 1.352L58.879 71.602a21 21 0 0 0-.264 3.096C58.613 86.82 69.22 89.136 74.469 89.541a1.64 1.64 0 0 1 1.28 2.486c-3.37 5.554-10.27 19.485-2.027 29.513 0 0 27.603 24.929 31.26 48.407M67.644 128.27a9 9 0 0 1-.927-.972c-6.74-8.2-7.771-19.2-3.156-31.075-8.842-3.715-14.015-11.386-14.014-21.525a29.4 29.4 0 0 1 .365-4.442l8.152-54.33a98.4 98.4 0 0 0-13.654-1.32 1.64 1.64 0 0 0-1.644 1.4L26.661 123.019a1.646 1.646 0 0 0 1.327 1.862c8.455 1.584 48.91 10.606 66.641 40.941-5.15-15.281-20.735-31.888-26.985-37.551" data-name="Logo Artwork" fill="#AEB6C2"></path></svg>