<svg xmlns:xlink="http://www.w3.org/1999/xlink" xmlns="http://www.w3.org/2000/svg" viewBox="0 0 501.19 128.456" alt="The Tilt Logo" class="Footer-module_theTiltLogo__b39U- Footer-module_svgLink__BdilV" width="501.19"  height="128.456" ><path d="M463.506 20.493c9.754 0 19.507-.005 29.26 0 5.576.005 8.205 2.628 8.21 8.185.02 15.886.029 31.772.063 47.654.004 3.75.087 7.497.15 11.244.058 3.248-1.225 5.74-4.289 7.009-3.001 1.239-5.687.643-8.035-1.719-6.331-6.365-12.75-12.643-19.071-19.022-1.026-1.036-1.544-1.036-2.59 0-14.686 14.608-29.42 29.168-44.144 43.733-1.917 1.897-3.882 3.751-5.79 5.663-3.775 3.79-8.175 5.474-13.441 3.78-5.513-1.776-9.032-5.561-10.363-11.19-1.027-4.338.26-8.205 3.359-11.284 16.685-16.593 33.432-33.118 50.17-49.657 1.854-1.83 1.893-1.796.03-3.64-6.119-6.08-12.242-12.16-18.355-18.244-2.537-2.522-3.229-5.257-1.965-8.107 1.37-3.093 3.857-4.347 7.188-4.333 9.87.044 19.744.015 29.613.015zm-245.291 84.824c-4.522 1.806-6.322 2.125-11.037 2-5.368-.141-8.417-2.605-9.516-7.813a23.7 23.7 0 0 1-.523-4.7c-.063-9.381-.024-18.757-.116-28.138-.01-1.418.489-1.592 1.714-1.582 5.934.058 11.868-.005 17.803.053 1.21.01 1.737-.15 1.713-1.578-.092-5.683-.068-11.37-.01-17.057.01-1.148-.305-1.477-1.461-1.467-5.935.058-11.874-.024-17.803.063-1.482.02-1.99-.257-1.966-1.878.112-6.917.02-13.84.078-20.751.01-1.244-.358-1.573-1.578-1.564-6.936.054-13.868.063-20.8-.004-1.326-.01-1.674.348-1.66 1.665.073 6.8-.019 13.601.073 20.402.024 1.622-.271 2.212-2.057 2.14-3.989-.155-7.992-.005-11.985-.073-1.157-.02-1.496.314-1.481 1.471.053 5.741.048 11.487 0 17.232-.01 1.075.28 1.414 1.38 1.4 4.109-.064 8.228.048 12.338-.069 1.51-.039 1.805.431 1.8 1.854-.058 12.779-.164 25.562.01 38.34.126 9.478 4.245 16.657 13.248 20.548 3.258 1.409 6.7 2.169 10.228 2.42 6.83.494 13.611.286 20.218-1.805.634-.198 1.404-.208 1.4-1.239-.02-6.607-.01-13.214-.01-19.87m148.432-.162c-3.916 2.255-7.962 2.41-12.014 2.072-4.942-.417-7.497-2.788-8.519-7.648a24.6 24.6 0 0 1-.542-4.875c-.068-9.317-.034-18.64-.106-27.958-.01-1.278.256-1.69 1.621-1.67 5.935.083 11.869 0 17.803.063 1.288.01 1.825-.193 1.796-1.675-.097-5.629-.078-11.258-.01-16.883.015-1.244-.329-1.563-1.563-1.549-5.93.063-11.869-.02-17.803.063-1.428.02-1.873-.29-1.854-1.796.087-6.916-.005-13.833.073-20.75.014-1.356-.392-1.656-1.68-1.646-6.878.063-13.752.068-20.625-.005-1.409-.014-1.752.402-1.738 1.767.068 6.859-.01 13.718.068 20.571.015 1.419-.27 1.908-1.796 1.864-4.11-.116-8.224-.005-12.338-.063-1.089-.014-1.394.305-1.384 1.39.048 5.74.053 11.486 0 17.231-.015 1.147.305 1.5 1.471 1.481 4.057-.072 8.113.063 12.164-.077 1.636-.053 1.888.484 1.878 1.96-.058 12.72-.155 25.441.01 38.162.121 9.473 4.182 16.675 13.18 20.59 3.253 1.42 6.695 2.184 10.223 2.445 6.83.518 13.607.29 20.219-1.757.789-.242 1.505-.377 1.495-1.549-.058-6.505-.029-13.01-.029-19.758m-70.16-41.799c0-20.513-.02-41.027.033-61.54.005-1.481-.387-1.83-1.84-1.816-6.873.083-13.746.068-20.62.01-1.205-.01-1.578.266-1.578 1.53.034 41.085.034 82.175 0 123.26 0 1.25.349 1.55 1.569 1.54 6.815-.058 13.63-.078 20.446.01 1.558.019 2.037-.33 2.032-1.98-.067-20.34-.043-40.674-.043-61.014M61.322 79.741c0-10.605-.015-21.216.024-31.826.005-1.094-.208-1.515-1.418-1.476-3.113.092-6.225-.01-9.337.048-1.448.025-3.364-.668-4.197.305-.707.823-.227 2.677-.227 4.076-.005 24.555.01 49.115-.044 73.676 0 1.461.344 1.849 1.815 1.805 3.93-.111 7.87-.106 11.806 0 1.36.039 1.617-.373 1.612-1.65-.044-8.616-.034-17.232.048-25.848.025-2.575.368-5.136 1.656-7.464 1.64-2.962 4.7-4.298 8.785-3.761 3.137.411 4.816 2.449 5.634 5.31.494 1.752.692 3.567.702 5.387.034 8.848.063 17.701.039 26.55 0 1.108.232 1.495 1.423 1.471 4.056-.082 8.112-.092 12.164.005 1.316.029 1.64-.31 1.631-1.626-.063-9.44-.048-18.878-.024-28.312a50.3 50.3 0 0 0-.74-8.737c-1.448-8.446-5.834-12.769-14.154-13.979-7.537-1.099-13.766 1.699-17.198 7.575zm169.586 5.863c0 13.011.014 26.022-.024 39.033-.005 1.206.14 1.733 1.578 1.714 6.99-.087 13.979-.063 20.968-.015 1.133.01 1.481-.276 1.476-1.447-.029-26.138-.033-52.276.005-78.414 0-1.191-.377-1.443-1.49-1.438-6.932.048-13.863.063-20.795-.01-1.36-.01-1.757.315-1.752 1.724.058 12.948.034 25.9.034 38.853M38.405 112.973c-2.193 1.278-4.39 1.418-6.636 1.39-3.964-.059-6.06-1.734-6.462-5.683-.683-6.714-.145-13.457-.315-20.19-.024-1.089.678-.861 1.283-.866 3.52-.005 7.048-.083 10.567.039 1.394.043 1.626-.417 1.592-1.67a177 177 0 0 1 0-9.488c.03-1.176-.198-1.616-1.5-1.582-3.461.101-6.927-.02-10.393.062-1.2.03-1.592-.232-1.568-1.505.092-4.1-.015-8.204.063-12.304.024-1.191-.363-1.443-1.476-1.423-4.052.063-8.108.097-12.155-.015-1.408-.038-1.607.446-1.587 1.68.077 4.1-.005 8.2.053 12.304.01.997-.28 1.288-1.273 1.259-2.464-.068-4.933.014-7.396-.039-.93-.024-1.206.266-1.19 1.19.052 3.394.072 6.797-.01 10.19-.03 1.166.416 1.35 1.427 1.321 2.11-.068 4.236.092 6.336-.058 1.632-.116 2.16.257 2.13 2.028a849 849 0 0 0-.024 23.549c.077 5.721 2.43 10.295 7.86 12.648 6.467 2.802 13.147 2.405 19.827.658.721-.189.866-.576.862-1.249-.03-3.983-.015-7.962-.015-12.246M257 19.753c-.01-8.05-6.172-14.44-13.931-14.44-7.822 0-13.926 6.414-13.921 14.624 0 7.986 6.273 14.52 13.93 14.516 7.735-.005 13.931-6.544 13.922-14.7M135.139 94.84c3.481 0 3.622-.213 2.397-3.606-1.404-3.902-5.015-6.4-9.027-6.254-4.981.184-8.883 3.224-10.04 7.817q-.512 2.038 1.54 2.038c2.696.005 5.397.005 8.093.005zm6.752-18.398c6.254 3.669 9.299 9.496 10.76 16.35.828 3.878.64 7.803.717 11.72.029 1.287-.736 1.05-1.467 1.05h-33.757c1.094 4.729 3.437 8.233 8.17 9.588 4.967 1.419 9.12-.14 12.513-3.891 1.719-1.903 1.69-1.932 3.747-.33 2.502 1.941 4.966 3.936 7.507 5.823.896.664.925 1.094.189 1.898-7.856 8.582-17.58 10.978-28.505 7.88-10.581-3-16.825-10.315-18.48-21.191-1.337-8.752.459-16.782 6.592-23.5 7.735-8.476 22.508-10.974 32.014-5.397m56.842-11.358c5.934.059 11.869-.004 17.803.054 1.215.01 1.743-.15 1.718-1.578-.096-5.688-.072-11.375-.014-17.058.01-1.147-.3-1.48-1.462-1.466-5.934.058-11.869-.024-17.803.058-1.481.024-1.984-.252-1.96-1.878.106-6.912.014-13.834.072-20.751.01-1.24-.353-1.568-1.578-1.559-6.931.054-13.867.063-20.799-.005-1.326-.014-1.67.349-1.655 1.666.068 6.8-.024 13.601.072 20.402.02 1.622-.275 2.212-2.057 2.14-3.993-.156-7.991-.006-11.985-.073-1.156-.02-1.495.31-1.486 1.471.059 5.74.054 11.487.005 17.232-.01 1.07.276 1.414 1.375 1.394 4.114-.058 8.229.054 12.338-.063 1.515-.039 1.81.431 1.8 1.854-.057 12.779-.164 25.562.01 38.336.131 9.482 4.245 16.66 13.249 20.552 3.257 1.404 6.703 2.164 10.232 2.42 6.83.494 13.611.286 20.214-1.805.634-.203 1.408-.208 1.403-1.239-.024-6.607-.014-13.214-.014-19.87-4.521 1.806-6.322 2.125-11.036 2-5.363-.141-8.418-2.605-9.516-7.813a24 24 0 0 1-.523-4.7c-.063-9.38-.024-18.762-.112-28.137-.014-1.418.484-1.598 1.71-1.583M93.414 96.41a51 51 0 0 0-.74-8.737c-1.448-8.446-5.833-12.769-14.154-13.979-7.536-1.098-13.766 1.704-17.198 7.575v-1.53c0-10.605-.014-21.215.024-31.825 0-1.094-.208-1.515-1.418-1.476-3.112.092-6.23-.01-9.342.048-1.442.024-3.359-.668-4.192.305-.706.823-.227 2.677-.232 4.076-.005 24.555.015 49.115-.039 73.676 0 1.461.34 1.849 1.81 1.81 3.936-.116 7.876-.107 11.811-.005 1.36.039 1.617-.373 1.607-1.65a1841 1841 0 0 1 .054-25.848c.024-2.575.367-5.136 1.655-7.464 1.64-2.962 4.7-4.298 8.785-3.761 3.137.411 4.816 2.45 5.63 5.31.498 1.752.697 3.567.702 5.387.038 8.848.067 17.701.043 26.55-.005 1.108.228 1.495 1.423 1.471a275 275 0 0 1 12.16.005c1.32.03 1.645-.31 1.635-1.626-.063-9.44-.048-18.873-.024-28.312m-67.143-8.786c3.524-.005 7.048-.082 10.567.034 1.394.049 1.631-.416 1.597-1.665-.092-3.16-.087-6.326-.004-9.492.029-1.171-.199-1.617-1.496-1.578-3.466.102-6.932-.02-10.392.063-1.2.029-1.598-.237-1.569-1.51.087-4.1-.014-8.2.063-12.3.02-1.19-.363-1.442-1.481-1.427-4.047.062-8.103.096-12.154-.015-1.404-.039-1.607.45-1.583 1.684.072 4.1-.005 8.2.048 12.3.015 1.002-.276 1.287-1.268 1.263-2.469-.068-4.937.015-7.4-.043-.925-.02-1.201.266-1.187 1.19.049 3.398.073 6.801-.01 10.194-.029 1.162.412 1.35 1.423 1.317 2.11-.063 4.236.097 6.341-.053 1.632-.117 2.154.256 2.13 2.028a830 830 0 0 0-.024 23.548c.073 5.722 2.425 10.296 7.86 12.648 6.468 2.803 13.147 2.406 19.827.654.716-.19.862-.571.857-1.244-.024-3.984-.015-7.968-.015-12.246-2.192 1.277-4.39 1.418-6.636 1.384-3.96-.053-6.06-1.733-6.462-5.678-.678-6.713-.145-13.461-.31-20.19-.029-1.088.673-.866 1.278-.866m320.814-22.55c5.935.083 11.869 0 17.803.064 1.288.01 1.825-.194 1.796-1.675-.097-5.625-.077-11.254-.01-16.883.015-1.244-.329-1.564-1.558-1.55-5.934.064-11.874-.019-17.803.064-1.433.024-1.878-.29-1.859-1.796.087-6.917 0-13.834.073-20.75.014-1.356-.392-1.656-1.68-1.647-6.873.063-13.751.073-20.625-.004-1.408-.015-1.752.401-1.737 1.766.067 6.86-.01 13.718.067 20.577.015 1.413-.27 1.902-1.796 1.859-4.109-.117-8.223-.005-12.338-.063-1.089-.015-1.394.305-1.384 1.389.048 5.745.053 11.491 0 17.232-.01 1.147.305 1.5 1.472 1.48 4.056-.072 8.112.068 12.163-.072 1.636-.058 1.888.484 1.883 1.956-.058 12.72-.155 25.44.005 38.161.121 9.478 4.182 16.675 13.18 20.591 3.253 1.419 6.695 2.183 10.223 2.45 6.83.513 13.607.285 20.224-1.762.784-.242 1.5-.373 1.49-1.55-.058-6.5-.029-13.01-.029-19.758-3.915 2.256-7.962 2.416-12.009 2.072-4.946-.416-7.502-2.783-8.524-7.648a24.6 24.6 0 0 1-.542-4.87c-.067-9.322-.033-18.64-.106-27.962-.01-1.278.256-1.69 1.621-1.67M253.42 45.038c-6.931.048-13.863.058-20.794-.01-1.36-.01-1.757.315-1.752 1.718.058 12.953.034 25.906.034 38.86 0 13.01.014 26.021-.025 39.032-.004 1.2.14 1.733 1.578 1.714 6.99-.088 13.98-.063 20.97-.015 1.132.01 1.48-.28 1.48-1.447q-.051-39.207 0-78.414c0-1.191-.377-1.448-1.49-1.438m43.066 18.319c0-20.514-.02-41.027.034-61.541.005-1.481-.388-1.83-1.84-1.815-6.873.082-13.746.068-20.62.01-1.205-.01-1.578.266-1.578 1.529.034 41.085.034 82.175 0 123.26 0 1.25.349 1.55 1.569 1.54 6.815-.058 13.63-.078 20.445.01 1.56.02 2.038-.33 2.033-1.98-.067-20.34-.043-40.674-.043-61.013M243.068 5.314c-7.822 0-13.926 6.414-13.921 14.623 0 7.987 6.273 14.521 13.926 14.516 7.74-.004 13.935-6.544 13.926-14.7-.01-8.05-6.172-14.439-13.93-14.439" fill="#AEB6C2"></path><path fill="none" d="M0 0h501.19v128.456H0z"></path></svg>